<svg xmlns="http://www.w3.org/2000/svg" width="805.04004" height="651.24669" viewBox="0 0 805.04004 651.24669" xmlns:xlink="http://www.w3.org/1999/xlink"><g><polygon points="241.17251 640.85807 256.4246 640.85658 263.68011 582.02643 241.16945 582.02801 241.17251 640.85807" fill="#ffb6b6"/><path d="M293.42808,640.51208h0c.4749,.79982,.72548,3.38126,.72548,4.31137h0c0,2.85894-2.31759,5.17662-5.17662,5.17662h-47.23394c-1.95035,0-3.53151-1.58107-3.53151-3.53151v-1.9665s-2.33662-5.91036,2.47406-13.19519c0,0,5.97903,5.70414,14.91325-3.23007l2.63462-4.77281,19.07102,13.94758,10.57078,1.30116c2.31267,.28464,4.36307-.04418,5.55268,1.95935h.00019Z" fill="#2f2e41"/></g><g><polygon points="325.17251 640.85807 340.4246 640.85658 347.68011 582.02643 325.16945 582.02801 325.17251 640.85807" fill="#ffb6b6"/><path d="M377.42808,640.51208h0c.4749,.79982,.72548,3.38126,.72548,4.31137h0c0,2.85894-2.31759,5.17662-5.17662,5.17662h-47.23394c-1.95035,0-3.53151-1.58107-3.53151-3.53151v-1.9665s-2.33662-5.91036,2.47406-13.19519c0,0,5.97903,5.70414,14.91325-3.23007l2.63462-4.77281,19.07102,13.94758,10.57078,1.30116c2.31267,.28464,4.36307-.04418,5.55268,1.95935h.00019Z" fill="#2f2e41"/></g><path d="M319.04527,172.54728s17.56693-8,28.78346,0,21.21654,80,9.21654,92c-12,12-32-15-32-15l-6-77Z" fill="#ffb6b6"/><path d="M252.65354,173.5s-17.56693-8-28.78346,0-21.21654,80-9.21654,92,32-15,32-15l6-77Z" fill="#ffb6b6"/><path d="M253.15354,262s-6,27-13,39l51,30,40-26s-19-31-16-40l-62-3Z" fill="#ffb6b6"/><g><polygon points="600.62661 637.85995 581.03981 637.85804 571.72225 562.30808 600.63055 562.31011 600.62661 637.85995" fill="#ffb6b6"/><path d="M533.51976,637.41563h0c-.60986,1.02713-.93166,4.34223-.93166,5.53669h0c0,3.67146,2.97626,6.64784,6.64784,6.64784h60.65805c2.50465,0,4.53519-2.03042,4.53519-4.53519v-2.52539s3.00069-7.59011-3.1772-16.94533c0,0-7.6783,7.32528-19.15166-4.14808l-3.38339-6.12927-24.4911,17.91155-13.57505,1.67096c-2.96994,.36554-5.60307-.05673-7.13077,2.51621h-.00024Z" fill="#2f2e41"/></g><g><polygon points="661.17138 637.85995 641.58458 637.85804 632.26702 562.30808 661.17531 562.31011 661.17138 637.85995" fill="#ffb6b6"/><path d="M594.06453,637.41563h0c-.60986,1.02713-.93166,4.34223-.93166,5.53669h0c0,3.67146,2.97626,6.64784,6.64784,6.64784h60.65805c2.50465,0,4.53519-2.03042,4.53519-4.53519v-2.52539s3.00069-7.59011-3.1772-16.94533c0,0-7.6783,7.32528-19.15166-4.14808l-3.38339-6.12927-24.4911,17.91155-13.57505,1.67096c-2.96994,.36554-5.60307-.05673-7.13077,2.51621h-.00024Z" fill="#2f2e41"/></g><g><path d="M559.87774,202.03374s-2.8368,18.25975,.44853,30.04219l-48.24223,85.54714,18.76617,13.67763,62.67044-78.85065,8.68465-38.9589-42.32756-11.45741Z" fill="#ffb6b6"/><ellipse cx="514.78625" cy="336.30896" rx="24.50622" ry="15.13619" transform="translate(-31.019 619.51423) rotate(-60.58023)" fill="#ffb6b6"/></g><path d="M578.69796,289.07025s-23.06467,16.27694-15.13619,40.57317l-6.48694,81.95791,14.41542,168.66042h31.04991l4.98864-121.08954,20.18159-76.40173,2.61634,197.49127,38.46761-.72077s2.16231-98.74563-.72077-104.5118c-2.88308-5.76617,0-1.14075,0-1.14075l23.78544-115.64119-3.60386-79.26779-109.5572,10.09079Z" fill="#2f2e41"/><polygon points="635.63888 87.97513 593.83416 103.83209 598.15878 115.36443 563.56177 141.31219 586.62645 222.03854 573.65257 294.11565 611.13266 292.67411 691.85902 285.4664 683.20977 197.53233 684.65131 112.48135 652.93738 100.94901 635.63888 87.97513" fill="#536dfe"/><path d="M574.37334,139.14987l-10.81157,2.16231s-5.0454,3.60386-5.0454,16.57773,0,21.62313,1.44154,28.83084c0,0-8.64925,23.06467-5.76617,28.83084,2.88308,5.76617,38.92164,5.76617,38.92164,5.76617l-18.74005-82.1679Z" fill="#536dfe"/><path d="M633.94762,54.52454c0,18.14827-14.71208,32.86035-32.86035,32.86035-18.14827,0-32.86035-14.71208-32.86035-32.86035,0-18.14827,14.71208-32.86035,32.86035-32.86035s32.86035,14.71208,32.86035,32.86035Z" fill="#ffb6b6"/><path d="M621.62253,77.40612s5.82133-22.36488-.38166-18.42126l-9.62679-.9148,6.07816-16.25953s-10.8813-8.15741-15.21991-3.38904c-4.33861,4.76837-3.29898,7.45749-7.24261,1.2545s-12.1839-6.08574-19.73144-1.6223c-7.54754,4.46343-13.44559,5.19813-12.01098-3.08411,1.43461-8.28223,.63035-22.3556,5.11118-20.75956,4.48084,1.59603,3.25239,2.49689,5.66857-3.28675s2.72112-8.99257,8.31423-6.51833,19.64857-9.14175,25.45656-2.11402c5.80799,7.02773,10.8813,8.15741,15.9546,9.28709s25.45656-2.11402,23.75179,29.45547c0,0,13.60518,27.19611-10.90181,39.76167,0,0-6.65081-6.56349-11.29436,1.41381l-3.92555-4.80284Z" fill="#2f2e41"/><path d="M306.15354,148l-32,1-17,21-19,4s-6,56,3,76,5,26,5,26l72-1s-2-13.58268,10-25.29134l6.01784-22.27074c3.21745-11.90708,2.12131-24.5683-3.09461-35.74527l-12.92323-27.69264-11-4-1-12Z" fill="#2f2e41"/><path d="M246.15354,288l-4.5,7.5s-14,19-16,73,14.5,228.73622,14.5,228.73622h22.83465l24.68576-236.40945,32.97959,236.67323,29.5,.5-2.5-241.5s-6-55-22-67c0,0-51.5,46.5-79.5-1.5Z" fill="#2f2e41"/><g><path d="M204.50705,169.53298c0,10.3817-.62537,18.10648-11.96219,18.79773-10.64788,.64924-11.96219-8.41603-11.96219-18.79773s.24795-18.71364,11.96219-18.79773c13.33682-.09574,11.96219,8.41603,11.96219,18.79773Z" fill="#536dfe"/><path d="M271.15354,169.53298c0,10.3817,2.72814,18.10653-11.96219,18.79773-11.30138,.53174-11.96219-8.41603-11.96219-18.79773s1.66011-17.63281,11.96219-18.79773c9.69033-1.09574,11.96219,8.41603,11.96219,18.79773Z" fill="#536dfe"/><rect x="194.25374" y="160.98856" width="66.64649" height="15.37996" fill="#536dfe"/></g><g><path d="M319.50705,166.53298c0,10.3817-.62537,18.10648-11.96219,18.79773-10.64788,.64924-11.96219-8.41603-11.96219-18.79773s.24795-18.71364,11.96219-18.79773c13.33682-.09574,11.96219,8.41603,11.96219,18.79773Z" fill="#536dfe"/><path d="M386.15354,166.53298c0,10.3817,2.72814,18.10653-11.96219,18.79773-11.30138,.53174-11.96219-8.41603-11.96219-18.79773s1.66011-17.63281,11.96219-18.79773c9.69033-1.09574,11.96219,8.41603,11.96219,18.79773Z" fill="#536dfe"/><rect x="309.25374" y="157.98856" width="66.64649" height="15.37996" fill="#536dfe"/></g><g><path d="M493.50705,330.53298c0,10.3817-.62537,18.10648-11.96219,18.79773-10.64788,.64924-11.96219-8.41603-11.96219-18.79773s.24795-18.71364,11.96219-18.79773c13.33682-.09574,11.96219,8.41603,11.96219,18.79773Z" fill="#536dfe"/><path d="M560.15354,330.53298c0,10.3817,2.72814,18.10653-11.96219,18.79773-11.30138,.53174-11.96219-8.41603-11.96219-18.79773s1.66011-17.63281,11.96219-18.79773c9.69033-1.09574,11.96219,8.41603,11.96219,18.79773Z" fill="#536dfe"/><rect x="483.25374" y="321.98856" width="66.64649" height="15.37996" fill="#536dfe"/></g><ellipse cx="343.08857" cy="169.11815" rx="12.99252" ry="21.03551" fill="#ffb6b6"/><circle cx="281.65354" cy="100.5" r="35.5" fill="#ffb6b6"/><path d="M274.52614,111.65484l8.21357-13.0713,3.69905-17.77667s37.41739,9.12619,27.37858-9.12619c-10.03881-18.25239-35.59215-22.81548-52.93192-9.12619l-7.47342,7.30095s16.59961-15.51453,6.5608-20.99025c-10.03881-5.47572-8.21357-9.12619-13.68929-4.5631-5.47572,4.5631-2.73786,8.21357-9.12619,5.47572-6.38834-2.73786-20.07763-6.38834-18.25239-1.82524s-11.9431,16.42715-6.88417,21.90286,.49583,16.42715,9.62203,13.68929c9.12619-2.73786,4.5631,10.95143,12.77667,5.47572,0,0-6.74164,8.59122-1.26592,14.97955s13.91262,8.87381,13,18,21,11,21,11l-1.70502-26.63978s5.42715-4.44956,9.07763,5.29463Z" fill="#2f2e41"/><g><path d="M635.952,172.91127s-5.23404,17.72205-3.54078,29.83617l-59.1644,78.39133,16.78586,16.04623,72.57675-69.83999,13.77611-37.46248-40.43354-16.97125Z" fill="#ffb6b6"/><ellipse cx="573.44631" cy="300.01798" rx="24.50622" ry="15.13619" transform="translate(-11.47536 576.99832) rotate(-52.957)" fill="#ffb6b6"/></g><path d="M678.82781,107.74546s18.43162,6.68681,16.08684,19.36535c-2.34478,12.67854-3.23496,21.03684-3.23496,21.03684,0,0,1.99724,6.92547-.60797,10.37731s-15.98067,43.92576-15.98067,43.92576l-48.10713-16.44165s28.20184-78.04673,51.8439-78.26361Z" fill="#536dfe"/><path d="M241.60275,170.07087c0,11.61759-5.81695,21.03551-12.99252,21.03551-7.17557,0-12.99252-9.41792-12.99252-21.03551,0-11.61759,5.81695-21.03551,12.99252-21.03551s12.99252,9.41792,12.99252,21.03551Z" fill="#ffb6b6"/></svg>